# xmcd CD database file
#
# Track frame offsets:
#	150
#	16325
#	34095
#	50232
#
# Disc length: 902 seconds
#
# Revision: 1
# Processed by: cddbd v1.5.1PL0 Copyright (c) Steve Scherf et al.
# Submitted via: CDex 1.50
#
DISCID=2e038404
DTITLE=GEAR戦士電童 - W-infinity
DYEAR=2000
DGENRE=Anime
TTITLE0=影山ヒロノブ with 三重野瞳/W-infinity
TTITLE1=FINALATTACK/REN
TTITLE2=W-infinity(オリジナル・カラオケ)
TTITLE3=FINALATTACK(オリジナル・カラオケ)
EXTD=YEAR: 2000
EXTT0=
EXTT1=
EXTT2=
EXTT3=
PLAYORDER=
